<mxfile host="app.diagrams.net" modified="2021-10-29T03:41:28.320Z" agent="5.0 (Macintosh; Intel Mac OS X 10_15_7) AppleWebKit/537.36 (KHTML, like Gecko) Chrome/95.0.4638.54 Safari/537.36" etag="8E-BdLG9s3uRQPzd0PYi" version="15.6.2" type="github">
  <diagram id="C5RBs43oDa-KdzZeNtuy" name="Page-1">
    <mxGraphModel dx="2253" dy="769" grid="1" gridSize="10" guides="1" tooltips="1" connect="1" arrows="1" fold="1" page="1" pageScale="1" pageWidth="827" pageHeight="1169" math="0" shadow="0">
      <root>
        <mxCell id="WIyWlLk6GJQsqaUBKTNV-0" />
        <mxCell id="WIyWlLk6GJQsqaUBKTNV-1" parent="WIyWlLk6GJQsqaUBKTNV-0" />
        <mxCell id="91x3fOgfyPXGfrmUWrbo-7" style="edgeStyle=orthogonalEdgeStyle;rounded=0;orthogonalLoop=1;jettySize=auto;html=1;exitX=1;exitY=0.5;exitDx=0;exitDy=0;entryX=0;entryY=0.5;entryDx=0;entryDy=0;" edge="1" parent="WIyWlLk6GJQsqaUBKTNV-1" source="91x3fOgfyPXGfrmUWrbo-0" target="91x3fOgfyPXGfrmUWrbo-1">
          <mxGeometry relative="1" as="geometry" />
        </mxCell>
        <mxCell id="91x3fOgfyPXGfrmUWrbo-0" value="投放" style="rounded=0;whiteSpace=wrap;html=1;" vertex="1" parent="WIyWlLk6GJQsqaUBKTNV-1">
          <mxGeometry x="-20" y="220" width="120" height="60" as="geometry" />
        </mxCell>
        <mxCell id="91x3fOgfyPXGfrmUWrbo-8" style="edgeStyle=orthogonalEdgeStyle;rounded=0;orthogonalLoop=1;jettySize=auto;html=1;exitX=1;exitY=0.5;exitDx=0;exitDy=0;" edge="1" parent="WIyWlLk6GJQsqaUBKTNV-1" source="91x3fOgfyPXGfrmUWrbo-1" target="91x3fOgfyPXGfrmUWrbo-2">
          <mxGeometry relative="1" as="geometry" />
        </mxCell>
        <mxCell id="91x3fOgfyPXGfrmUWrbo-1" value="拆分" style="rounded=0;whiteSpace=wrap;html=1;" vertex="1" parent="WIyWlLk6GJQsqaUBKTNV-1">
          <mxGeometry x="180" y="220" width="120" height="60" as="geometry" />
        </mxCell>
        <mxCell id="91x3fOgfyPXGfrmUWrbo-9" style="edgeStyle=orthogonalEdgeStyle;rounded=0;orthogonalLoop=1;jettySize=auto;html=1;exitX=1;exitY=0.5;exitDx=0;exitDy=0;entryX=0;entryY=0.5;entryDx=0;entryDy=0;" edge="1" parent="WIyWlLk6GJQsqaUBKTNV-1" source="91x3fOgfyPXGfrmUWrbo-2" target="91x3fOgfyPXGfrmUWrbo-4">
          <mxGeometry relative="1" as="geometry" />
        </mxCell>
        <mxCell id="91x3fOgfyPXGfrmUWrbo-10" value="通过" style="edgeLabel;html=1;align=center;verticalAlign=middle;resizable=0;points=[];" vertex="1" connectable="0" parent="91x3fOgfyPXGfrmUWrbo-9">
          <mxGeometry x="-0.125" y="2" relative="1" as="geometry">
            <mxPoint as="offset" />
          </mxGeometry>
        </mxCell>
        <mxCell id="91x3fOgfyPXGfrmUWrbo-11" style="edgeStyle=orthogonalEdgeStyle;rounded=0;orthogonalLoop=1;jettySize=auto;html=1;exitX=0.5;exitY=0;exitDx=0;exitDy=0;entryX=0.442;entryY=0;entryDx=0;entryDy=0;entryPerimeter=0;" edge="1" parent="WIyWlLk6GJQsqaUBKTNV-1" source="91x3fOgfyPXGfrmUWrbo-2" target="91x3fOgfyPXGfrmUWrbo-1">
          <mxGeometry relative="1" as="geometry">
            <Array as="points">
              <mxPoint x="430" y="150" />
              <mxPoint x="233" y="150" />
            </Array>
          </mxGeometry>
        </mxCell>
        <mxCell id="91x3fOgfyPXGfrmUWrbo-12" value="驳回" style="edgeLabel;html=1;align=center;verticalAlign=middle;resizable=0;points=[];" vertex="1" connectable="0" parent="91x3fOgfyPXGfrmUWrbo-11">
          <mxGeometry x="0.0663" y="-3" relative="1" as="geometry">
            <mxPoint x="11" y="3" as="offset" />
          </mxGeometry>
        </mxCell>
        <mxCell id="91x3fOgfyPXGfrmUWrbo-2" value="一审" style="rounded=0;whiteSpace=wrap;html=1;" vertex="1" parent="WIyWlLk6GJQsqaUBKTNV-1">
          <mxGeometry x="370" y="220" width="120" height="60" as="geometry" />
        </mxCell>
        <mxCell id="91x3fOgfyPXGfrmUWrbo-13" style="edgeStyle=orthogonalEdgeStyle;rounded=0;orthogonalLoop=1;jettySize=auto;html=1;exitX=0.25;exitY=0;exitDx=0;exitDy=0;entryX=0.25;entryY=1;entryDx=0;entryDy=0;fontSize=15;" edge="1" parent="WIyWlLk6GJQsqaUBKTNV-1" source="91x3fOgfyPXGfrmUWrbo-4" target="91x3fOgfyPXGfrmUWrbo-6">
          <mxGeometry relative="1" as="geometry" />
        </mxCell>
        <mxCell id="91x3fOgfyPXGfrmUWrbo-18" value="&lt;font style=&quot;font-size: 12px&quot;&gt;驳回&lt;/font&gt;" style="edgeLabel;html=1;align=center;verticalAlign=middle;resizable=0;points=[];fontSize=15;" vertex="1" connectable="0" parent="91x3fOgfyPXGfrmUWrbo-13">
          <mxGeometry x="-0.0571" y="1" relative="1" as="geometry">
            <mxPoint as="offset" />
          </mxGeometry>
        </mxCell>
        <mxCell id="91x3fOgfyPXGfrmUWrbo-15" style="edgeStyle=orthogonalEdgeStyle;rounded=0;orthogonalLoop=1;jettySize=auto;html=1;exitX=1;exitY=0.5;exitDx=0;exitDy=0;fontSize=15;" edge="1" parent="WIyWlLk6GJQsqaUBKTNV-1" source="91x3fOgfyPXGfrmUWrbo-4" target="91x3fOgfyPXGfrmUWrbo-5">
          <mxGeometry relative="1" as="geometry" />
        </mxCell>
        <mxCell id="91x3fOgfyPXGfrmUWrbo-4" value="二审" style="rounded=0;whiteSpace=wrap;html=1;" vertex="1" parent="WIyWlLk6GJQsqaUBKTNV-1">
          <mxGeometry x="570" y="220" width="120" height="60" as="geometry" />
        </mxCell>
        <mxCell id="91x3fOgfyPXGfrmUWrbo-5" value="录排" style="rounded=0;whiteSpace=wrap;html=1;" vertex="1" parent="WIyWlLk6GJQsqaUBKTNV-1">
          <mxGeometry x="750" y="220" width="120" height="60" as="geometry" />
        </mxCell>
        <mxCell id="91x3fOgfyPXGfrmUWrbo-14" style="edgeStyle=orthogonalEdgeStyle;rounded=0;orthogonalLoop=1;jettySize=auto;html=1;exitX=0.75;exitY=1;exitDx=0;exitDy=0;entryX=0.75;entryY=0;entryDx=0;entryDy=0;fontSize=15;" edge="1" parent="WIyWlLk6GJQsqaUBKTNV-1" source="91x3fOgfyPXGfrmUWrbo-6" target="91x3fOgfyPXGfrmUWrbo-4">
          <mxGeometry relative="1" as="geometry" />
        </mxCell>
        <mxCell id="91x3fOgfyPXGfrmUWrbo-19" value="提交" style="edgeLabel;html=1;align=center;verticalAlign=middle;resizable=0;points=[];fontSize=12;" vertex="1" connectable="0" parent="91x3fOgfyPXGfrmUWrbo-14">
          <mxGeometry x="-0.0286" y="-1" relative="1" as="geometry">
            <mxPoint y="1" as="offset" />
          </mxGeometry>
        </mxCell>
        <mxCell id="91x3fOgfyPXGfrmUWrbo-6" value="一审改" style="rounded=0;whiteSpace=wrap;html=1;" vertex="1" parent="WIyWlLk6GJQsqaUBKTNV-1">
          <mxGeometry x="570" y="100" width="120" height="60" as="geometry" />
        </mxCell>
      </root>
    </mxGraphModel>
  </diagram>
</mxfile>
